<?xml version="1.0" encoding="UTF-8" standalone="no"?>
<svg
   xmlns:dc="http://purl.org/dc/elements/1.1/"
   xmlns:cc="http://creativecommons.org/ns#"
   xmlns:rdf="http://www.w3.org/1999/02/22-rdf-syntax-ns#"
   xmlns:svg="http://www.w3.org/2000/svg"
   xmlns="http://www.w3.org/2000/svg"
   xmlns:sodipodi="http://sodipodi.sourceforge.net/DTD/sodipodi-0.dtd"
   xmlns:inkscape="http://www.inkscape.org/namespaces/inkscape"
   width="210mm"
   height="297mm"
   viewBox="0 0 210 297"
   version="1.1"
   id="svg845"
   sodipodi:docname="icons.svg"
   inkscape:version="1.0.1 (3bc2e813f5, 2020-09-07)">
  <metadata
     id="metadata44">
    <rdf:RDF>
      <cc:Work
         rdf:about="">
        <dc:format>image/svg+xml</dc:format>
        <dc:type
           rdf:resource="http://purl.org/dc/dcmitype/StillImage" />
        <dc:title />
      </cc:Work>
    </rdf:RDF>
  </metadata>
  <defs
     id="defs42" />
  <sodipodi:namedview
     pagecolor="#ffffff"
     bordercolor="#666666"
     borderopacity="1"
     objecttolerance="10"
     gridtolerance="10"
     guidetolerance="10"
     inkscape:pageopacity="0"
     inkscape:pageshadow="2"
     inkscape:window-width="1920"
     inkscape:window-height="1017"
     id="namedview40"
     showgrid="false"
     inkscape:zoom="2.56"
     inkscape:cx="5.9299388"
     inkscape:cy="31.101759"
     inkscape:window-x="-8"
     inkscape:window-y="-8"
     inkscape:window-maximized="1"
     inkscape:current-layer="svg845"
     inkscape:document-units="mm"
     inkscape:document-rotation="0" />
  <path
     style="fill:#000000;fill-opacity:1;fill-rule:evenodd;stroke:#000000;stroke-width:0.174699;stroke-opacity:1"
     d="m 3.1649965,0.17753525 a 2.2556292,2.2556292 0 0 0 -0.5668416,0.09148 c -0.079054,0.02589 -0.1584533,0.05109 -0.2381978,0.0756 a 3.017862,3.017862 0 0 0 -0.4360054,0.207822 4.0217447,4.0217447 0 0 0 -0.98972903,0.82506205 3.3188887,3.3188887 0 0 0 -0.6548712,1.052213 3.0216593,3.0216593 0 0 0 -0.1329074,1.654611 c 0.010011,0.06559 0.024165,0.130491 0.043152,0.194356 l 0.089756,0.310347 c 0.1166824,0.331406 0.2665053,0.650384 0.4473975,0.95141 0.00759,0.01346 0.014844,0.02693 0.023129,0.04039 l 0.1726071,0.267541 a 9.4184773,9.4184773 0 0 0 1.15646733,1.371536 16.692484,16.692484 0 0 0 2.1817534,1.799947 c 0.1570724,0.115301 0.319323,0.223353 0.4857162,0.324501 0.1518943,0.097 0.3103475,0.183999 0.4736338,0.259601 a 0.78812387,0.78812387 0 0 0 0.7111412,-0.04833 c 0.1712262,-0.09666 0.3383098,-0.200915 0.5005605,-0.313109 a 19.000241,19.000241 0 0 0 2.0125982,-1.689823 11.338904,11.338904 0 0 0 1.3463353,-1.566582 7.1127921,7.1127921 0 0 0 0.5364634,-0.919651 c 0.101838,-0.214032 0.187106,-0.436005 0.255458,-0.662811 0.03728,-0.12911 0.06939,-0.25891 0.09631,-0.390437 A 3.0668824,3.0668824 0 0 0 10.559134,2.3561813 3.2329304,3.2329304 0 0 0 9.9280816,1.3250273 4.4384181,4.4384181 0 0 0 9.0502026,0.56659125 c -0.07215,-0.04488 -0.14499,-0.08837 -0.218176,-0.131181 A 3.0378844,3.0378844 0 0 0 8.3014373,0.21033025 2.6022242,2.6022242 0 0 0 6.5080502,0.28834925 3.6212963,3.6212963 0 0 0 5.364701,1.0609383 3.686887,3.686887 0 0 0 4.3514975,0.39985325 2.7824259,2.7824259 0 0 0 3.5126271,0.18512925 6.6018751,6.6018751 0 0 0 3.1946849,0.17477325 l -0.029688,0.0024 m 0.293432,0.718735 0.2219727,0.03452 a 2.4144277,2.4144277 0 0 1 0.7836361,0.33485805 3.6185346,3.6185346 0 0 1 0.923793,0.869249 3.491841,3.491841 0 0 1 1.1291954,-1.058427 2.0443581,2.0443581 0 0 1 0.8954855,-0.27306405 1.8520738,1.8520738 0 0 1 0.7007847,0.09493 2.3933696,2.3933696 0 0 1 0.5689133,0.27996805 3.7552394,3.7552394 0 0 1 0.722878,0.631742 2.421332,2.421332 0 0 1 0.570639,1.088115 c 0.06697,0.327954 0.06697,0.666263 0,0.994217 l -0.07008,0.285492 -0.09459,0.28273 a 5.0366742,5.0366742 0 0 1 -0.422888,0.83749 7.805982,7.805982 0 0 1 -0.785017,1.04738 14.963307,14.963307 0 0 1 -2.083712,1.934925 c -0.182273,0.146371 -0.3693791,0.286528 -0.5616634,0.420471 -0.12911,0.08941 -0.2633983,0.171571 -0.4018292,0.246137 l -0.01657,0.0059 A 0.15223943,0.15223943 0 0 1 5.5003701,8.9477003 1.0843176,1.0843176 0 0 1 5.3650462,8.8779673 6.5072865,6.5072865 0 0 1 4.6642615,8.4316053 15.970296,15.970296 0 0 1 2.577442,6.7096773 9.0653232,9.0653232 0 0 1 1.7095737,5.7244363 5.5669232,5.5669232 0 0 1 1.1969307,4.9193963 4.1042509,4.1042509 0 0 1 0.95700687,4.3629113 l -0.082161,-0.282385 A 2.408559,2.408559 0 0 1 0.86448947,2.9471883 2.4655194,2.4655194 0 0 1 1.3609074,1.9761003 3.6426996,3.6426996 0 0 1 2.161459,1.2425203 2.2390589,2.2390589 0 0 1 2.8149493,0.94839825 l 0.2088546,-0.0435 0.2022955,-0.01726 0.2323291,0.0083"
     id="Herz" />
  <g
     id="Pfote"
     inkscape:label="Pfote"
     transform="translate(-12.983756,-27.768086)"
     inkscape:groupmode="layer">
    <path
       d="m 17.865164,32.555323 c -0.729704,-0.09296 -1.440819,-0.514356 -1.888556,-1.123219 -0.37957,-0.514355 -0.672381,-1.048853 -0.862943,-1.578702 -0.128588,-0.354783 -0.241684,-0.825759 -0.241684,-1.010121 0,-0.418304 0.268022,-0.833506 0.635199,-0.983786 0.140983,-0.05732 0.31605,-0.08211 0.480273,-0.06817 0.29591,0.02324 0.497315,0.07746 1.030263,0.278868 0.570128,0.215348 0.717309,0.25563 1.058148,0.29591 0.46633,0.05577 0.777732,-0.0093 1.45941,-0.300557 0.602664,-0.257178 0.738999,-0.29746 0.991531,-0.29746 0.472526,0 0.850547,0.247883 0.965194,0.632101 0.04028,0.139435 0.04338,0.48647 0.0046,0.646045 -0.0976,0.402808 -0.275768,0.807168 -0.548439,1.24716 -0.611961,0.986882 -1.084488,1.533774 -1.653069,1.913343 -0.25253,0.168871 -0.492666,0.271123 -0.768435,0.325347 -0.142532,0.02943 -0.511258,0.04183 -0.661538,0.02324 z"
       id="path8102"
       style="stroke-width:0.00154926" />
    <path
       d="m 13.857211,34.543033 c -0.395064,-0.06042 -0.694072,-0.317602 -0.797873,-0.686324 -0.07746,-0.278871 -0.09605,-0.57478 -0.05268,-0.866042 0.07591,-0.514357 0.300558,-0.977586 0.641396,-1.319975 0.23394,-0.233939 0.449288,-0.368727 0.743648,-0.466331 0.348585,-0.113095 0.656889,-0.03098 0.907871,0.240139 0.2138,0.23084 0.29591,0.467878 0.311402,0.901672 0.0062,0.193659 0.0031,0.264925 -0.02479,0.4245 -0.08521,0.500413 -0.300557,0.920263 -0.650693,1.273496 -0.235487,0.237038 -0.508158,0.415204 -0.71886,0.469429 -0.09295,0.02479 -0.289713,0.04028 -0.359429,0.02943 z"
       id="path8100"
       style="stroke-width:0.00154926" />
    <path
       d="m 21.874667,34.730494 c -0.35943,-0.07592 -0.726607,-0.326897 -0.976039,-0.663087 -0.247883,-0.33774 -0.398161,-0.71731 -0.46478,-1.174344 -0.03718,-0.258727 -0.03873,-0.360979 -0.0077,-0.554636 0.04957,-0.305206 0.173516,-0.567033 0.356331,-0.751395 0.127039,-0.12859 0.247882,-0.202955 0.39971,-0.241687 0.343937,-0.09141 0.791675,0.06042 1.146457,0.388865 0.229292,0.210703 0.474077,0.604217 0.584075,0.940406 0.10225,0.308304 0.151827,0.703368 0.123941,0.974491 -0.02479,0.241682 -0.120843,0.511257 -0.246335,0.694069 -0.04338,0.06352 -0.175066,0.196758 -0.249431,0.254079 -0.176617,0.136338 -0.424499,0.185914 -0.666184,0.133239 z"
       id="path8098"
       style="stroke-width:0.00154926" />
    <path
       d="m 15.894496,37.686496 c -0.376471,-0.123943 -0.687873,-0.494218 -0.805618,-0.957449 -0.01705,-0.06352 -0.03873,-0.219995 -0.04958,-0.347036 -0.06197,-0.762239 0.199856,-1.536872 0.683227,-2.014047 0.192109,-0.190559 0.46478,-0.35478 0.683227,-0.412104 0.312952,-0.08211 0.725056,0.09915 0.951249,0.418303 0.216898,0.305205 0.319149,0.661536 0.319149,1.117021 0,0.269572 -0.02788,0.483371 -0.09295,0.732803 -0.19056,0.729705 -0.607313,1.24251 -1.177443,1.443915 -0.139434,0.04958 -0.388866,0.05887 -0.511259,0.01859 z"
       id="path8096"
       style="stroke-width:0.00154926" />
    <path
       d="M 19.595695,37.73917 C 19.319926,37.66016 19.127817,37.543963 18.923314,37.336359 18.574728,36.983128 18.35938,36.490461 18.286565,35.8785 c -0.05268,-0.449287 0.0031,-0.839702 0.171969,-1.196033 0.08211,-0.175068 0.140982,-0.263375 0.261825,-0.388867 0.218447,-0.227743 0.458583,-0.343937 0.717312,-0.343937 0.14408,0 0.246333,0.02789 0.407456,0.10845 0.562383,0.281965 0.958996,0.914066 1.062796,1.688698 0.04183,0.316051 0.01395,0.779283 -0.06507,1.048855 -0.127039,0.438442 -0.435344,0.790127 -0.807167,0.920265 -0.114646,0.04028 -0.34084,0.05268 -0.439992,0.02324 z"
       id="path8094"
       style="stroke-width:0.00154926" />
  </g>
  <g
     transform="matrix(0.00103909,0,0,-0.00103909,-0.00608855,8.7767442)"
     fill="#000000"
     stroke="none"
     id="Wifi">
    <path
       d="m 6165,8444 c -259,-15 -425,-28 -580,-45 C 3837,8208 2197,7450 940,6254 c -47,-45 -98,-87 -115,-95 -16,-8 -32,-23 -35,-35 C 787,6113 661,5993 510,5858 359,5724 213,5589 187,5559 126,5490 68,5378 34,5265 10,5185 7,5158 6,5025 5,4898 9,4862 29,4786 c 44,-170 128,-331 219,-421 49,-49 153,-117 227,-148 101,-42 175,-58 305,-64 211,-9 392,36 561,139 70,43 143,109 434,397 193,191 404,394 470,452 1060,932 2337,1470 3758,1584 220,18 709,20 925,4 1134,-81 2200,-440 3117,-1052 394,-262 607,-440 1040,-867 165,-163 321,-311 348,-329 70,-48 181,-98 272,-122 65,-18 107,-22 225,-22 178,0 292,27 445,103 216,107 335,255 398,495 28,107 30,325 4,434 -25,104 -69,212 -123,306 -40,69 -97,131 -403,438 -387,390 -535,518 -896,777 -1241,888 -2673,1408 -4230,1536 -168,14 -825,26 -960,18 z"
       id="path8074" />
    <path
       d="m 6260,5373 c -229,-15 -475,-46 -645,-79 -861,-168 -1610,-530 -2275,-1098 -130,-111 -845,-820 -906,-898 -88,-113 -148,-250 -180,-408 -24,-123 -15,-323 20,-443 97,-328 349,-572 678,-659 122,-33 369,-32 482,0 238,68 293,109 686,497 402,398 492,477 695,612 396,265 845,430 1329,489 176,22 517,22 695,0 572,-69 1091,-284 1531,-635 52,-41 228,-206 390,-366 363,-358 445,-416 667,-477 111,-30 315,-30 428,1 152,41 289,119 409,231 167,157 251,356 263,622 9,193 -18,324 -108,516 -55,119 -93,179 -272,432 -167,235 -248,327 -422,479 -889,776 -2035,1199 -3220,1189 -110,-1 -220,-3 -245,-5 z"
       id="path8076" />
    <path
       d="m 6050,1964 c -603,-52 -921,-218 -1056,-552 -114,-284 -93,-710 47,-950 46,-77 189,-218 269,-265 248,-143 635,-207 1180,-194 519,13 845,96 1077,273 138,106 239,265 285,449 29,117 32,387 5,503 -95,414 -396,633 -987,719 -100,14 -702,27 -820,17 z"
       id="path8078" />
  </g>
  <g
     transform="matrix(0.00145335,0,0,-0.00145335,-4.6454323,9.9345859)"
     fill="#000000"
     stroke="none"
     id="Whatsapp">
    <path
       d="M 6185,6830 C 5815,6799 5404,6682 5056,6508 4429,6195 3936,5699 3630,5075 3180,4159 3193,3137 3665,2182 l 75,-151 -277,-822 C 3255,590 3189,383 3197,371 c 6,-9 20,-17 32,-19 16,-3 21,-10 21,-33 0,-27 3,-30 23,-23 71,22 647,206 1123,358 l 550,176 145,-68 c 569,-272 1149,-370 1754,-296 902,110 1714,612 2219,1374 409,616 614,1380 555,2077 -54,646 -290,1241 -693,1745 -396,496 -960,872 -1577,1052 -132,39 -369,88 -509,106 -115,15 -519,21 -655,10 z m 640,-674 c 580,-87 1074,-334 1485,-746 400,-399 638,-872 706,-1405 21,-166 22,-485 1,-650 -71,-565 -326,-1083 -732,-1490 -300,-302 -628,-505 -1025,-636 -263,-86 -487,-121 -790,-121 -249,-1 -392,15 -605,67 -290,70 -482,152 -807,344 -25,15 -43,10 -488,-132 -254,-81 -466,-145 -470,-142 -5,3 57,200 136,438 79,237 144,443 144,456 0,13 -26,65 -59,115 -356,553 -491,1156 -400,1791 53,371 180,697 391,1001 440,637 1131,1044 1908,1124 119,12 486,4 605,-14 z"
       id="path5255" />
    <path
       d="m 5325,5227 c -62,-21 -114,-58 -191,-138 -170,-178 -250,-364 -261,-614 -13,-287 99,-604 352,-995 423,-653 848,-1036 1410,-1270 288,-120 476,-182 600,-200 93,-12 277,15 391,59 103,40 247,134 311,204 98,108 183,348 183,519 0,71 -2,80 -27,108 -51,56 -685,387 -760,397 -68,9 -95,-10 -207,-141 -174,-203 -228,-256 -259,-256 -36,0 -277,121 -392,197 -281,186 -515,441 -698,765 -15,26 -27,51 -27,57 0,6 32,46 71,88 94,103 125,150 165,247 46,109 44,138 -17,303 -88,240 -116,315 -164,444 -50,134 -88,193 -139,214 -47,20 -292,28 -341,12 z"
       id="path5257" />
  </g>
  <path
     d="m 8.5029688,0.05282114 a 86.407098,86.407098 0 0 1 -1.493396,0.341417 C 6.252173,0.56201214 4.2254208,1.0118261 3.4890791,1.1758031 c -0.2685766,0.06007 -0.5167856,0.118063 -0.5516522,0.129455 -0.156382,0.0504 -0.2540776,0.150513 -0.3003363,0.307586 -0.012428,0.04281 -0.013118,0.201605 -0.015535,3.002327 l -0.00138,2.95814 -0.056615,-0.02865 A 1.6059362,1.6059362 0 0 0 2.2628785,7.4431651 C 1.9017845,7.3692851 1.4864919,7.4145151 1.0891504,7.5708941 0.8129791,7.6799821 0.5595919,7.8432681 0.3669624,8.0365881 0.1888319,8.2154091 0.0745661,8.4042411 0.019677,8.6113701 0.002416,8.6752301 0,8.6994001 0,8.8046901 c 0,0.138085 0.010356,0.192629 0.061793,0.301717 0.125658,0.267541 0.3942346,0.436005 0.8019325,0.504703 0.122551,0.02037 0.3969962,0.01795 0.5416409,-0.0038 0.5371532,-0.08285 1.038059,-0.347631 1.3442639,-0.711142 0.1294553,-0.152584 0.2247344,-0.338309 0.2616723,-0.505393 0.00621,-0.02693 0.00829,-0.712177 0.00759,-2.422368 0,-1.636315 0.00242,-2.40269 0.00759,-2.440664 0.026236,-0.189177 0.120825,-0.314144 0.3044789,-0.402864 0.045914,-0.02244 0.1083972,-0.04868 0.1401569,-0.05869 0.07284,-0.02416 0.057651,-0.02071 1.7143334,-0.388711 0.7636137,-0.169155 1.6742886,-0.371796 2.0257166,-0.450159 l 0.6372653,-0.141883 v 4.059373 l -0.066281,-0.03245 C 7.4272819,5.9352701 6.9111868,5.9287111 6.423054,6.0940681 5.8489629,6.2891141 5.3967324,6.6833491 5.2569207,7.1114141 a 0.71252198,0.71252198 0 0 0 -0.039009,0.295504 c 0.00345,0.108397 0.013463,0.152584 0.052473,0.248899 0.044878,0.109088 0.1691549,0.255804 0.2792783,0.327953 0.162941,0.107707 0.3683434,0.17675 0.5972204,0.200915 a 2.7914015,2.7914015 0 0 0 0.4829546,-0.01208 c 0.7408288,-0.115649 1.3894862,-0.576165 1.5693427,-1.113318 0.051092,-0.154311 0.047985,0.07836 0.047985,-3.133163 0,-1.877965 0.0031,-2.93086796 0.0076,-2.97298496 0.02416,-0.207473 0.09632,-0.360403 0.218866,-0.462587 0.05351,-0.04384 0.148442,-0.08975 0.211962,-0.101493 l 0.0504,-0.01001 v -0.189522 c 0,-0.1046 -0.0021,-0.19021299823 -0.0052,-0.1895229982321 -0.0035,0 -0.105981,0.024159998232 -0.227842,0.052819998232 z"
     id="Musik"
     style="fill:#000000;stroke:none;stroke-width:0.000752273" />
  <g
     transform="matrix(-7.6292324e-4,0,0,-7.6292324e-4,9.7654175,9.6586082)"
     fill="#000000"
     stroke="none"
     id="Medizin_2">
    <path
       d="m 4540,11109 c 0,-1237 -3,-1550 -12,-1546 -7,2 -613,351 -1346,775 l -1332,770 -24,-41 C 1164,9929 0,7900 2,7888 c 2,-12 445,-273 1328,-783 729,-421 1330,-767 1335,-769 6,-2 8,-5 5,-8 -3,-2 -605,-350 -1338,-773 C 402,5018 0,4782 0,4770 0,4758 1270,2548 1826,1593 l 24,-41 1332,770 c 733,424 1339,773 1346,775 9,4 12,-309 12,-1546 V 0 h 3730 l -2,1550 c -2,1031 0,1549 7,1546 6,-2 610,-350 1343,-774 l 1332,-770 24,41 c 556,955 1826,3165 1826,3177 0,12 -402,248 -1332,785 -733,423 -1335,771 -1338,773 -3,3 0,6 5,8 6,2 606,348 1335,769 883,510 1326,771 1328,783 2,12 -1162,2041 -1824,3179 l -24,41 -1332,-770 c -733,-424 -1337,-772 -1343,-774 -7,-3 -9,515 -7,1546 l 2,1550 H 4540 Z m 3652,-107 3,-1577 1360,786 c 997,577 1363,783 1371,775 15,-15 1774,-3063 1774,-3073 0,-4 -33,-26 -73,-49 -98,-55 -2606,-1502 -2635,-1521 -23,-14 -14,-20 266,-181 1585,-912 2441,-1408 2442,-1415 0,-10 -1759,-3058 -1774,-3073 -8,-8 -374,198 -1371,775 L 8195,3235 8192,1658 8190,80 H 4615 l 3,1580 c 1,869 0,1580 -2,1580 -2,0 -617,-355 -1367,-789 -1001,-578 -1367,-785 -1375,-777 -15,15 -1774,3063 -1774,3073 1,7 857,503 2442,1415 280,161 289,167 266,181 -29,19 -2537,1466 -2635,1521 -40,23 -73,45 -73,49 0,10 1759,3058 1774,3073 8,8 374,-199 1375,-777 750,-434 1365,-789 1367,-789 2,0 3,711 2,1580 l -3,1580 h 3575 z"
       id="path2028" />
    <path
       d="m 4732,10840 c 3,-1397 1,-1619 -11,-1615 -12,5 -460,263 -2583,1488 l -217,125 -831,-1441 C 395,8194 260,7955 273,7946 c 8,-6 638,-371 1401,-811 762,-440 1386,-802 1386,-805 0,-3 -624,-365 -1386,-805 C 912,5085 281,4721 273,4715 c -13,-10 104,-217 729,-1301 410,-709 784,-1357 832,-1440 l 87,-152 1402,809 c 770,445 1403,809 1406,809 4,0 5,-729 3,-1620 l -2,-1620 h 3340 l 2,1620 3,1621 1402,-809 1402,-810 832,1441 c 704,1220 829,1442 816,1452 -8,6 -639,371 -1401,810 -762,440 -1386,802 -1386,805 0,3 624,365 1386,805 763,440 1393,805 1402,811 12,9 -122,247 -817,1452 l -832,1441 -127,-74 c -70,-41 -701,-405 -1402,-809 l -1275,-736 -3,1620 -2,1620 H 4730 Z"
       id="path2030" />
  </g>
  <g
     style="fill:#000000"
     id="Schluessel"
     transform="matrix(0.35355796,0,0,0.35355796,-1.0606739,-1.0606739)">
    <path
       d="m 20,3 c -4.945,0 -9,4.055 -9,9 0,0.52 0.086,0.977 0.156,1.438 L 3.281,21.28 3,21.594 V 29 h 7 v -3 h 3 v -3 h 3 v -2.969 c 1.18,0.578 2.555,0.969 4,0.969 4.945,0 9,-4.055 9,-9 0,-4.945 -4.055,-9 -9,-9 z m 0,2 c 3.855,0 7,3.145 7,7 0,3.855 -3.145,7 -7,7 A 7.356,7.356 0 0 1 16.594,18.125 L 16.344,18 H 14 v 3 h -3 v 3 H 8 v 3 H 5 V 22.437 L 12.906,14.5 13.281,14.156 13.187,13.625 C 13.086,13.023 13,12.488 13,12 13,8.145 16.145,5 20,5 Z m 2,3 a 2,2 0 1 0 0,4 2,2 0 1 0 0,-4 z"
       id="path1599" />
  </g>
  <g
     transform="matrix(7.3872129e-4,0,0,-7.3875825e-4,-0.00135403,9.454245)"
     fill="#000000"
     stroke="none"
     id="Telefon">
    <path
       d="m 3045,12782 c -27,-10 -230,-122 -450,-248 -220,-127 -506,-291 -635,-364 -301,-171 -350,-219 -382,-374 -23,-106 -15,-124 273,-615 480,-820 1464,-2453 1505,-2500 54,-59 132,-106 213,-127 113,-28 117,-27 650,279 262,151 553,318 648,371 236,134 298,204 325,370 21,129 12,151 -211,521 -1045,1729 -1554,2566 -1580,2597 -73,87 -245,131 -356,90 z"
       id="path5301" />
    <path
       d="M 1193,11440 C 663,11288 301,10903 124,10301 -161,9334 58,7811 725,6120 1400,4410 2421,2786 3535,1651 4489,680 5399,145 6310,19 6437,1 6818,1 6935,18 c 218,33 412,85 604,161 86,35 177,76 189,86 5,4 -872,1531 -975,1695 -105,168 -311,504 -630,1030 -170,279 -140,257 -293,219 -128,-31 -394,-34 -545,-5 -331,61 -711,251 -1050,523 -139,111 -397,363 -527,513 -197,228 -397,506 -563,785 -101,170 -151,270 -218,440 -168,426 -272,819 -323,1220 -25,198 -23,540 5,722 53,353 178,647 377,890 30,36 52,68 50,72 -2,3 -56,95 -120,204 -168,286 -414,732 -816,1477 -492,914 -776,1420 -795,1419 -5,0 -56,-13 -112,-29 z"
       id="path5303" />
    <path
       d="m 7690,4686 c -19,-8 -237,-130 -485,-273 -247,-143 -533,-306 -635,-363 -199,-113 -268,-169 -308,-251 -51,-105 -48,-215 7,-313 701,-1244 1679,-2927 1734,-2984 18,-18 61,-48 97,-65 59,-29 73,-32 160,-32 h 96 l 159,92 c 88,50 385,220 660,377 275,158 512,299 528,314 41,38 76,95 98,160 22,63 26,199 7,253 -6,19 -100,185 -208,369 -109,184 -403,688 -655,1120 -656,1125 -854,1460 -887,1502 -18,23 -55,50 -96,70 -57,28 -78,33 -152,35 -53,2 -98,-3 -120,-11 z"
       id="path5305" />
  </g>
  <g
     transform="matrix(8.2506179e-4,0,0,-8.2506179e-4,0,10.56001)"
     fill="#000000"
     stroke="none"
     id="Medizin">
    <path
       d="m 5012,12784 c -131,-35 -255,-130 -314,-240 -145,-270 -7,-614 285,-706 84,-27 210,-27 294,0 201,64 343,257 343,467 0,140 -46,251 -145,350 -121,121 -304,172 -463,129 z"
       id="path5230" />
    <path
       d="m 3310,12755 c -198,-24 -340,-67 -487,-145 -226,-121 -444,-265 -993,-659 C 1102,11430 750,11216 260,10997 44,10901 0,10877 0,10857 c 0,-32 48,-83 106,-113 90,-46 203,-60 364,-45 211,21 306,48 521,149 301,141 833,466 1159,707 123,91 319,284 378,371 51,77 69,95 86,88 11,-4 14,-34 14,-132 1,-196 41,-350 130,-496 53,-88 192,-224 276,-271 147,-82 255,-107 454,-106 131,0 132,0 132,-23 0,-12 -13,-35 -30,-51 -58,-56 -64,-141 -16,-249 110,-249 412,-463 699,-497 146,-17 343,16 467,78 l 55,28 -3,150 c -6,361 -15,616 -22,620 -4,3 -43,-4 -86,-15 -243,-62 -448,-20 -577,120 -65,70 -104,147 -115,227 -13,99 -5,117 107,225 178,172 240,282 249,438 3,60 -1,105 -12,150 -33,128 -124,289 -212,373 -155,149 -466,215 -814,172 z"
       id="path5232" />
    <path
       d="m 6565,12759 c -102,-13 -240,-55 -317,-96 -115,-62 -201,-162 -274,-316 -50,-107 -67,-186 -62,-287 9,-156 71,-266 249,-438 112,-108 120,-126 107,-225 -11,-80 -50,-157 -115,-227 -129,-140 -334,-182 -577,-120 -43,11 -82,18 -86,15 -7,-4 -16,-259 -22,-620 l -3,-150 55,-28 c 124,-62 321,-95 467,-78 287,34 589,248 699,497 48,108 42,193 -16,249 -17,16 -30,39 -30,51 0,23 1,23 133,23 198,-1 306,24 453,106 84,47 223,183 276,271 89,146 129,300 130,496 0,170 12,175 100,44 59,-87 255,-280 378,-371 326,-241 858,-566 1159,-707 215,-101 310,-128 521,-149 161,-15 274,-1 364,45 58,30 106,81 106,113 0,20 -44,44 -260,140 -490,219 -842,433 -1570,954 -440,316 -566,402 -752,517 -181,113 -316,185 -394,212 -209,73 -505,105 -719,79 z"
       id="path5234" />
    <path
       d="m 4807,11733 c -3,-5 -1,-163 4,-353 4,-190 13,-538 19,-775 6,-236 15,-603 20,-815 5,-212 14,-596 20,-855 6,-258 11,-494 13,-523 1,-33 -2,-52 -9,-52 -24,0 -253,75 -358,117 -272,109 -447,236 -557,402 -74,112 -101,205 -107,374 -5,170 -1,179 66,116 26,-25 59,-53 73,-62 100,-61 278,-76 391,-33 171,65 312,188 325,284 4,33 1,44 -27,75 -70,80 -205,121 -400,121 -273,0 -443,-63 -608,-226 -148,-146 -223,-320 -223,-518 1,-228 102,-442 304,-645 143,-143 285,-246 515,-375 l 83,-47 -88,-64 c -107,-78 -252,-220 -316,-312 -222,-313 -256,-672 -101,-1040 104,-246 286,-446 608,-666 l 87,-59 -80,-56 c -303,-212 -466,-420 -528,-673 -23,-97 -23,-293 1,-408 69,-332 247,-628 516,-860 l 90,-78 -53,-56 c -173,-183 -257,-382 -257,-611 0,-320 126,-515 536,-827 l 29,-22 -82,-76 c -199,-184 -283,-351 -283,-561 0,-153 45,-291 139,-427 65,-94 108,-136 116,-115 4,9 -5,84 -19,168 -30,174 -32,252 -11,333 23,90 60,152 140,236 71,74 230,199 241,188 5,-5 15,-333 34,-1192 7,-275 15,-558 18,-630 l 7,-130 h 70 l 7,120 c 3,66 11,347 18,625 19,839 29,1202 34,1207 12,12 136,-84 234,-180 56,-55 83,-92 115,-156 l 42,-84 v -121 c 0,-85 -7,-158 -24,-244 -13,-67 -20,-129 -17,-139 6,-14 11,-12 36,12 43,42 127,165 156,231 51,116 67,198 62,324 -9,210 -85,355 -277,529 -45,40 -81,76 -81,80 0,5 39,38 88,74 338,255 472,474 473,777 0,226 -85,428 -258,611 l -53,56 99,86 c 263,230 432,511 508,848 26,112 23,330 -6,434 -65,242 -220,437 -507,640 l -94,67 86,59 c 166,114 336,259 420,359 121,145 222,349 261,530 26,123 24,356 -5,462 -69,255 -241,492 -485,667 l -88,64 109,61 c 532,302 794,638 793,1015 -1,337 -258,642 -602,717 -107,23 -344,23 -429,1 -91,-24 -163,-62 -200,-104 -27,-31 -31,-42 -27,-74 13,-96 161,-225 330,-288 79,-29 213,-29 298,-1 76,26 101,42 161,98 25,24 51,41 57,38 20,-13 14,-232 -9,-322 -54,-215 -200,-382 -450,-517 -129,-69 -378,-164 -549,-208 -10,-3 -13,16 -12,96 2,123 51,2157 71,2919 5,193 7,354 4,358 -6,10 -641,11 -647,1 z m 112,-4800 c 6,-313 14,-592 16,-622 5,-46 3,-52 -11,-47 -48,18 -141,91 -229,180 -152,153 -215,289 -215,461 0,154 51,273 174,402 63,67 221,190 247,192 3,1 11,-254 18,-566 z m 525,513 c 141,-94 260,-231 307,-353 30,-80 37,-234 15,-322 -34,-134 -118,-262 -245,-374 -64,-57 -177,-137 -193,-137 -5,0 -6,17 -3,38 2,20 10,299 16,620 7,320 14,582 17,582 3,0 41,-24 86,-54 z M 4978,4595 c 5,-192 7,-352 6,-354 -5,-7 -129,87 -173,130 -113,114 -181,268 -181,414 0,167 67,289 242,442 l 83,72 7,-177 c 4,-97 11,-334 16,-527 z m 495,551 c 48,-49 80,-95 109,-153 37,-74 42,-94 46,-170 9,-167 -55,-327 -179,-452 -43,-43 -168,-137 -172,-130 -2,2 3,209 9,459 7,250 13,488 13,528 l 1,74 53,-43 c 28,-24 83,-75 120,-113 z M 5018,2922 c 4,-144 5,-262 2,-262 -14,1 -116,144 -143,200 -25,54 -31,78 -31,140 -1,94 26,152 104,230 l 55,55 3,-50 c 1,-27 6,-168 10,-313 z m 311,292 c 65,-74 86,-127 86,-214 0,-101 -30,-166 -140,-303 -16,-20 -32,-37 -35,-37 -3,0 -2,93 1,207 4,115 7,254 8,311 1,98 2,102 20,93 10,-6 37,-31 60,-57 z"
       id="path5236" />
    <path
       d="m 2433,11673 c -17,-10 -89,-68 -160,-130 -500,-436 -903,-711 -1292,-882 -134,-60 -157,-82 -130,-129 22,-41 74,-61 192,-73 250,-25 424,29 777,238 329,196 765,525 804,608 17,35 17,36 -22,123 -35,76 -52,126 -82,232 -8,32 -44,37 -87,13 z"
       id="path5238" />
    <path
       d="m 7740,11664 c -6,-14 -10,-31 -10,-38 0,-21 -36,-120 -75,-206 -36,-79 -36,-80 -19,-115 39,-83 475,-412 804,-608 353,-209 527,-263 777,-238 118,12 170,32 192,73 27,47 4,69 -130,129 -400,176 -791,446 -1353,933 -117,102 -167,121 -186,70 z"
       id="path5240" />
    <path
       d="m 2660,11213 c -8,-4 -82,-71 -165,-151 -288,-279 -490,-431 -828,-626 l -118,-69 3,-35 c 3,-33 7,-37 48,-50 62,-19 259,-21 340,-3 153,33 323,121 522,268 150,111 473,382 489,410 19,36 -1,64 -75,108 -37,21 -91,65 -121,97 -53,57 -64,62 -95,51 z"
       id="path5242" />
    <path
       d="m 7506,11163 c -31,-33 -85,-77 -122,-98 -74,-44 -94,-72 -75,-108 16,-28 339,-299 489,-410 199,-147 369,-235 522,-268 81,-18 278,-16 340,3 41,13 45,17 48,50 l 3,35 -118,69 c -341,197 -541,348 -829,627 -83,81 -162,149 -177,152 -22,6 -33,-1 -81,-52 z"
       id="path5244" />
    <path
       d="m 3041,10946 c -13,-7 -37,-31 -53,-52 -99,-132 -292,-326 -531,-533 -119,-103 -133,-121 -117,-151 25,-48 128,-69 237,-50 288,50 823,504 823,700 0,16 -3,31 -7,33 -5,3 -53,10 -108,17 -54,6 -126,20 -160,31 -33,10 -60,19 -60,19 0,-1 -11,-7 -24,-14 z"
       id="path5246" />
    <path
       d="m 7129,10940 c -31,-10 -101,-24 -155,-30 -54,-7 -102,-14 -106,-17 -5,-2 -8,-17 -8,-33 0,-196 535,-650 823,-700 109,-19 212,2 237,50 16,30 2,48 -117,151 -241,208 -437,406 -533,535 -23,32 -72,69 -83,63 -1,-1 -27,-9 -58,-19 z"
       id="path5248" />
  </g>
</svg>
