<?xml version="1.0" encoding="UTF-8" standalone="no"?>
<svg
   xmlns:dc="http://purl.org/dc/elements/1.1/"
   xmlns:cc="http://creativecommons.org/ns#"
   xmlns:rdf="http://www.w3.org/1999/02/22-rdf-syntax-ns#"
   xmlns:svg="http://www.w3.org/2000/svg"
   xmlns="http://www.w3.org/2000/svg"
   xmlns:sodipodi="http://sodipodi.sourceforge.net/DTD/sodipodi-0.dtd"
   xmlns:inkscape="http://www.inkscape.org/namespaces/inkscape"
   width="10mm"
   height="10mm"
   version="1.1"
   viewBox="0 0 10 10"
   id="svg836"
   sodipodi:docname="herz.svg"
   inkscape:version="1.0.1 (3bc2e813f5, 2020-09-07)">
  <sodipodi:namedview
     pagecolor="#ffffff"
     bordercolor="#666666"
     borderopacity="1"
     objecttolerance="10"
     gridtolerance="10"
     guidetolerance="10"
     inkscape:pageopacity="0"
     inkscape:pageshadow="2"
     inkscape:window-width="1920"
     inkscape:window-height="1017"
     id="namedview6"
     showgrid="false"
     inkscape:zoom="11.244792"
     inkscape:cx="16.571144"
     inkscape:cy="17.081777"
     inkscape:window-x="-8"
     inkscape:window-y="-8"
     inkscape:window-maximized="1"
     inkscape:current-layer="svg836" />
  <defs
     id="defs840" />
  <metadata
     id="metadata833">
    <rdf:RDF>
      <cc:Work
         rdf:about="">
        <dc:format>image/svg+xml</dc:format>
        <dc:type
           rdf:resource="http://purl.org/dc/dcmitype/StillImage" />
        <dc:title></dc:title>
      </cc:Work>
    </rdf:RDF>
  </metadata>
  <path
     id="Herz"
     d="m 2.996675,0.90516425 c -0.1697,0.005554 -0.338052,0.0327752 -0.5008934,0.0809987 C 2.4258306,1.009017 2.3556117,1.031314 2.2852854,1.052936 2.1520917,1.1037654 2.0232179,1.16522 1.8998246,1.2366578 1.5708355,1.4311248 1.2753515,1.6773897 1.0247671,1.9659464 0.77521598,2.2369091 0.57893835,2.5524374 0.44617766,2.8960383 c -0.1749446,0.4669852 -0.215623,0.9736149 -0.11750877,1.462513 0.008789,0.058011 0.0214508,0.1153832 0.0380392,0.1716681 0.0268213,0.092013 0.0529686,0.1821473 0.0795837,0.2742788 0.10284696,0.2930044 0.23522413,0.5747914 0.39518233,0.8409427 0.00672,0.011957 0.013311,0.023987 0.020433,0.035711 L 1.0146426,5.9177833 C 1.3159716,6.3534867 1.6582152,6.7594045 2.0367191,7.1300659 2.6333349,7.7139983 3.278423,8.2462124 3.9650554,8.721088 4.1041138,8.8228088 4.2474427,8.9184779 4.3947368,9.0078246 4.528944,9.0936878 4.6687894,9.1703707 4.8133874,9.2373011 5.0174584,9.3241842 5.2507738,9.3079035 5.4415311,9.1947247 5.5933124,9.1093468 5.7410201,9.0169666 5.8841818,8.9178487 6.5109574,8.4616211 7.1054191,7.9625092 7.6631474,7.4241458 8.1011236,6.9997876 8.4994357,6.5363455 8.8531918,6.0395655 9.0313447,5.7808039 9.1899057,5.5090737 9.3274286,5.2265979 9.4173409,5.037169 9.4928876,4.841265 9.5534326,4.6405007 9.5862507,4.5266621 9.6145637,4.411574 9.6382572,4.2954821 9.7383887,3.8069186 9.7017055,3.3000719 9.5323795,2.8310012 9.4054636,2.494829 9.2163096,2.1855595 8.9747686,1.9195163 8.7465697,1.6630479 8.4856736,1.437634 8.1987996,1.2490612 8.1349558,1.2096777 8.0706637,1.1710629 8.0059068,1.1331663 7.8562409,1.0521469 7.6992248,0.98557668 7.5369837,0.93429086 7.0171683,0.76852679 6.455277,0.79296923 5.9518652,1.003254 5.5742864,1.1639896 5.2311863,1.3957896 4.9411044,1.6860883 4.6767341,1.4433657 4.3740871,1.2459567 4.0453829,1.1018702 3.8096669,1.0002823 3.5595156,0.93614556 3.3040211,0.91191956 3.2104136,0.90667006 3.116688,0.90368449 3.0229525,0.90294786 l -0.026219,0.002133 M 3.2562521,1.5402565 3.4523229,1.5706787 C 3.6989515,1.6274918 3.9334576,1.7277839 4.144997,1.8667435 4.4602985,2.0727237 4.7367327,2.3327644 4.9615855,2.63491 5.2201699,2.2523126 5.561134,1.9326914 5.9596525,1.6994054 6.2013023,1.5588021 6.4722549,1.476117 6.7512274,1.4580016 c 0.2099062,-0.011994 0.4201764,0.016536 0.6192684,0.084076 0.1778274,0.05981 0.3469074,0.1430435 0.5028017,0.2474456 0.2360113,0.15801 0.4507197,0.3456581 0.638948,0.558329 0.2480849,0.2718981 0.4217602,0.6032091 0.5044357,0.9618657 0.059169,0.2899147 0.059187,0.5887539 1.547e-4,0.8786882 l -0.06211,0.2525723 -0.083503,0.2497384 C 8.7698802,4.9485732 8.6447059,5.1963925 8.4973038,5.430977 8.292406,5.7584898 8.0603992,6.0682123 7.803675,6.356887 7.2454054,6.9840959 6.6286863,7.5566732 5.9618316,8.0669731 5.8006833,8.1965558 5.6350962,8.3205197 5.4653078,8.4385896 5.351056,8.5176634 5.2324548,8.5902722 5.1101443,8.6561795 l -0.014685,0.00525 c -0.01172,3.277e-4 -0.023243,-0.00154 -0.03457,-0.00423 C 5.0196467,8.6394768 4.9796838,8.618941 4.9413434,8.5956231 4.7267527,8.4774335 4.519956,8.3456871 4.322183,8.2011276 3.6652836,7.7468561 3.0482003,7.2376678 2.4773842,6.6790827 2.201029,6.4076576 1.944649,6.1165717 1.710409,5.8080696 1.539233,5.5842698 1.3875696,5.3461819 1.257151,5.096434 1.1744,4.9380108 1.1034704,4.7736934 1.0449424,4.6048199 L 0.97242682,4.3550327 C 0.88973282,4.0266338 0.88654762,3.6832097 0.96319012,3.3533251 1.0435845,3.0380722 1.1934747,2.7448517 1.4019932,2.4951039 1.6041157,2.244736 1.842646,2.0261214 2.1095943,1.8464735 2.2869694,1.7293976 2.4819874,1.6415366 2.6872589,1.5865018 l 0.1848042,-0.038319 0.1786937,-0.015196 0.2054582,0.00723"
     fill-rule="evenodd"
     stroke="#000000"
     stroke-width="0.154418" />
</svg>
