<?xml version="1.0" encoding="UTF-8" standalone="no"?>
<svg
   xmlns:dc="http://purl.org/dc/elements/1.1/"
   xmlns:cc="http://creativecommons.org/ns#"
   xmlns:rdf="http://www.w3.org/1999/02/22-rdf-syntax-ns#"
   xmlns:svg="http://www.w3.org/2000/svg"
   xmlns="http://www.w3.org/2000/svg"
   xmlns:sodipodi="http://sodipodi.sourceforge.net/DTD/sodipodi-0.dtd"
   xmlns:inkscape="http://www.inkscape.org/namespaces/inkscape"
   width="59.583mm"
   height="14.015mm"
   viewBox="7.708424 304.992493 59.583157 14.015015"
   version="1.1"
   id="svg1671"
   sodipodi:docname="labelPendant.svg"
   inkscape:version="1.0.1 (3bc2e813f5, 2020-09-07)">
  <sodipodi:namedview
     pagecolor="#ffffff"
     bordercolor="#666666"
     borderopacity="1"
     objecttolerance="10"
     gridtolerance="10"
     guidetolerance="10"
     inkscape:pageopacity="0"
     inkscape:pageshadow="2"
     inkscape:window-width="1904"
     inkscape:window-height="1001"
     id="namedview855"
     showgrid="false"
     inkscape:zoom="7.9985932"
     inkscape:cx="86.709409"
     inkscape:cy="15.571586"
     inkscape:window-x="0"
     inkscape:window-y="0"
     inkscape:window-maximized="0"
     inkscape:current-layer="svg1671"
     inkscape:document-rotation="0" />
  <metadata
     id="metadata1677">
    <rdf:RDF>
      <cc:Work
         rdf:about="">
        <dc:format>image/svg+xml</dc:format>
        <dc:type
           rdf:resource="http://purl.org/dc/dcmitype/StillImage" />
        <dc:title />
      </cc:Work>
    </rdf:RDF>
  </metadata>
  <defs
     id="defs1675" />
  <rect
     transform="matrix(-1,0,0,1,36.100101,312)"
     style="stroke:#f36926;stroke-width:0.05mm;fill:none"
     x="-24.999992"
     y="-4.200003"
     width="49.999985"
     height="8.400005"
     id="centerRectangle" />
  <rect
     transform="translate(36.100101,312)"
     style="stroke:#f36926;stroke-width:0.05mm;fill:none"
     x="-28.030037"
     y="-7.007502"
     width="56.060074"
     height="14.015004"
     id="rect1665" />
  <rect
     transform="matrix(-1.08333,0,0,1.08333,37.5,312)"
     style="stroke:#0000ff;stroke-width:0.05mm;fill:none"
     x="-27.5"
     y="-6.461538"
     width="55"
     height="12.923077"
     rx="7.5"
     id="outerShape" />
  <ellipse
     transform="matrix(-1.08333,0,0,1.08333,64.392029,312)"
     style="stroke:#0000ff;stroke-width:0.05mm;fill:none"
     rx="0.923063"
     ry="0.923077"
     cx="0"
     cy="0"
     id="hole" />
  <text
     xml:space="preserve"
     style="font-style:normal;font-weight:normal;font-size:6.30613px;line-height:0;font-family:sans-serif;letter-spacing:0.696184px;fill:#000000;fill-opacity:1;stroke:none;stroke-width:0.157652"
     x="18.619453"
     y="300.21899"
     id="text"
     transform="scale(0.95491042,1.0472187)"><tspan
       id="tspan2240"
       x="18.619453"
       y="300.21899"
       style="stroke-width:0.157652"
       dx="0.035083249"
       dy="0.017541625"
       rotate="0 0 0 0 0 0 0 0 0 0 0">0123456789</tspan></text>
  <rect
     style="fill:none;stroke-width:0;stroke-linecap:square;stop-color:#000000"
     id="rect1420"
     width="1.5292814"
     height="7.6169982"
     x="16.325336"
     y="307.87457" />
  <rect
     style="fill:none;fill-opacity:1;stroke:#f36926;stroke-width:0.0824367;stroke-linecap:square;stroke-miterlimit:4;stroke-dasharray:none;stroke-opacity:1;stop-color:#000000"
     id="iconPlaceholder"
     width="5.2092438"
     height="5.2092438"
     x="10.711701"
     y="309.39539" />
  <!-- <path
     id="icon"
     d="m 12.10946,309.6587 c -0.09586,0.003 -0.190958,0.0185 -0.282944,0.0458 -0.03951,0.0129 -0.07918,0.0255 -0.118905,0.0377 -0.07524,0.0287 -0.148036,0.0634 -0.217739,0.10378 -0.185839,0.10985 -0.352751,0.24896 -0.494301,0.41196 -0.140966,0.15307 -0.251839,0.3313 -0.326833,0.52539 -0.09882,0.26379 -0.121801,0.54998 -0.06638,0.82615 0.005,0.0328 0.01212,0.0652 0.02149,0.097 0.01515,0.052 0.02992,0.10289 0.04495,0.15493 0.0581,0.16551 0.132874,0.32469 0.223231,0.47503 0.0038,0.007 0.0075,0.0135 0.01154,0.0202 l 0.08628,0.13367 c 0.170214,0.24612 0.36354,0.47542 0.577349,0.6848 0.337016,0.32985 0.701413,0.63048 1.089277,0.89873 0.07855,0.0575 0.159514,0.1115 0.242718,0.16197 0.07581,0.0485 0.154806,0.0918 0.236487,0.12963 0.115275,0.0491 0.24707,0.0399 0.354825,-0.024 0.08574,-0.0482 0.169175,-0.10041 0.250044,-0.1564 0.354052,-0.25772 0.689851,-0.53965 1.0049,-0.84376 0.247403,-0.23972 0.472401,-0.5015 0.672231,-0.78212 0.100634,-0.14617 0.190202,-0.29967 0.267886,-0.45923 0.05079,-0.10701 0.09346,-0.21767 0.127665,-0.33108 0.01854,-0.0643 0.03453,-0.12931 0.04791,-0.19489 0.05656,-0.27598 0.03584,-0.56229 -0.05981,-0.82725 -0.07169,-0.1899 -0.178541,-0.3646 -0.314982,-0.51488 -0.128905,-0.14488 -0.27628,-0.27221 -0.438329,-0.37873 -0.03606,-0.0222 -0.07238,-0.0441 -0.108961,-0.0655 -0.08454,-0.0458 -0.173238,-0.0834 -0.264885,-0.11234 -0.293632,-0.0936 -0.611033,-0.0798 -0.8954,0.039 -0.213286,0.0908 -0.407096,0.22173 -0.570957,0.38572 -0.149337,-0.13711 -0.320296,-0.24862 -0.505974,-0.33001 -0.133151,-0.0574 -0.274456,-0.0936 -0.41878,-0.1073 -0.05288,-0.003 -0.10582,-0.005 -0.158769,-0.005 l -0.01481,10e-4 m 0.146597,0.3588 0.110756,0.0172 c 0.139316,0.0321 0.271783,0.0888 0.391277,0.16724 0.178107,0.11636 0.334259,0.26325 0.461274,0.43393 0.146069,-0.21613 0.338672,-0.39667 0.563787,-0.52845 0.136502,-0.0794 0.289558,-0.12613 0.447144,-0.13637 0.118571,-0.007 0.237348,0.009 0.349811,0.0475 0.100451,0.0338 0.195961,0.0808 0.284022,0.13977 0.133318,0.0893 0.254602,0.19526 0.360929,0.31539 0.140137,0.15359 0.238243,0.34074 0.284945,0.54334 0.03342,0.16377 0.03343,0.33257 9.1e-5,0.49635 l -0.03508,0.14267 -0.04717,0.14108 c -0.05725,0.14565 -0.127954,0.28564 -0.211219,0.41815 -0.115742,0.18501 -0.246798,0.35996 -0.391816,0.52303 -0.315355,0.3543 -0.663726,0.67774 -1.040418,0.96599 -0.09103,0.0732 -0.184566,0.14323 -0.280476,0.20992 -0.06454,0.0447 -0.131534,0.0857 -0.200624,0.12291 l -0.0083,0.003 c -0.0066,2.1e-4 -0.01313,-8.8e-4 -0.01953,-0.002 -0.0233,-0.01 -0.04587,-0.0216 -0.06753,-0.0348 -0.121223,-0.0668 -0.238038,-0.14119 -0.349756,-0.22285 -0.371066,-0.2566 -0.719644,-0.54423 -1.042085,-0.85977 -0.156108,-0.15332 -0.300931,-0.31775 -0.433249,-0.49201 -0.09669,-0.12642 -0.182365,-0.26091 -0.256035,-0.40199 -0.04675,-0.0895 -0.08681,-0.18231 -0.119873,-0.2777 l -0.04096,-0.1411 c -0.04671,-0.18551 -0.04851,-0.3795 -0.0052,-0.56585 0.04541,-0.17808 0.130083,-0.34371 0.247871,-0.48479 0.114175,-0.14142 0.248915,-0.26491 0.399709,-0.36639 0.100195,-0.0661 0.210357,-0.11577 0.32631,-0.14686 l 0.104392,-0.0216 0.10094,-0.009 0.11606,0.004"
     fill-rule="evenodd"
     stroke="#000000"
     stroke-width="0.109404" /> -->
</svg>
