<?xml version="1.0" encoding="UTF-8"?>
<svg id="svg853" width="210mm" height="297mm" version="1.1" viewBox="0 0 210 297" xmlns="http://www.w3.org/2000/svg" xmlns:cc="http://creativecommons.org/ns#" xmlns:dc="http://purl.org/dc/elements/1.1/" xmlns:rdf="http://www.w3.org/1999/02/22-rdf-syntax-ns#">
 <metadata id="metadata850">
  <rdf:RDF>
   <cc:Work rdf:about="">
    <dc:format>image/svg+xml</dc:format>
    <dc:type rdf:resource="http://purl.org/dc/dcmitype/StillImage"/>
    <dc:title/>
   </cc:Work>
  </rdf:RDF>
 </metadata>
 <g id="calendarPendant" >
  <circle id="circle995" transform="matrix(-1 0 0 1 -672.96 2.954)" r=".85" fill="none" stroke="#00f" stroke-width=".05mm"/>
  <rect id="rect997" transform="matrix(-1,0,0,1,-685,25)" x="-15" y="-25" width="30" height="50" rx="2" fill="none" stroke="#00f" stroke-width=".05mm"/>
  <path id="path1103" transform="scale(-1,1)" d="m698.39 21.52h-26.315v-0.35849h26.315z" fill="#a000a0" fill-rule="evenodd"/>
  <path id="herz" d="m-697.87 22.511c-0.0857 0.0011-0.17104 0.01374-0.2538 0.03765-0.0356 0.01142-0.0713 0.02253-0.10702 0.03327-0.0678 0.02562-0.13352 0.05697-0.19661 0.09368-0.16817 0.10002-0.31997 0.22805-0.44952 0.3791-0.12886 0.14168-0.2313 0.30772-0.30196 0.48941-0.0932 0.247-0.11907 0.51662-0.0747 0.77833 4e-3 0.03102 0.01 0.06174 0.0173 0.09192 0.0126 0.04935 0.0249 0.09769 0.0372 0.14709 0.0487 0.15732 0.11279 0.309 0.19077 0.45264 3e-3 0.0065 8e-3 0.01292 0.01 0.01926l0.0747 0.12782c0.14762 0.23559 0.31619 0.45575 0.50348 0.65751 0.29519 0.31786 0.6154 0.60869 0.9572 0.86939 0.0691 0.05577 0.14054 0.10834 0.214 0.15759 0.0669 0.04726 0.13676 0.08967 0.20908 0.12695 0.10216 0.04856 0.22014 0.04247 0.31768-0.01576 0.0775-0.04384 0.15308-0.09145 0.22645-0.14271 0.3213-0.23628 0.62673-0.49577 0.91408-0.77658 0.22565-0.22138 0.43164-0.46402 0.61547-0.72493 0.0927-0.13597 0.17561-0.27907 0.24804-0.42813 0.0474-0.09998 0.0876-0.20359 0.12027-0.30993 0.0178-0.06031 0.0331-0.12136 0.0465-0.18298 0.0557-0.25933 0.0425-0.52991-0.0382-0.78183-0.0606-0.1806-0.15289-0.34755-0.27207-0.49204-0.11259-0.13924-0.242-0.26227-0.3849-0.36597-0.0318-0.0217-0.0639-0.043-0.0963-0.06392-0.0748-0.04484-0.15338-0.08206-0.23479-0.11119-0.26075-0.0941-0.54477-0.08728-0.80125 0.01926-0.1924 0.08152-0.36807 0.20129-0.51763 0.35284-0.13094-0.13231-0.28174-0.24088-0.44625-0.32131-0.11798-0.05676-0.24363-0.09371-0.37242-0.10944-0.0472-0.0039-0.0945-0.0065-0.14181-8e-3l-0.0134 8.58e-4m0.12443 0.34145 0.0986 0.01838c0.12395 0.03301 0.2414 0.08907 0.34672 0.16547 0.1571 0.11328 0.294 0.25495 0.40439 0.4185 0.13457-0.2011 0.31014-0.36771 0.51386-0.48766 0.12356-0.07229 0.26124-0.11337 0.40232-0.11994 0.10614-0.0041 0.21205 0.01344 0.31187 0.05167 0.0891 0.03384 0.17369 0.08008 0.25133 0.13746 0.11753 0.08685 0.22406 0.18923 0.31688 0.30468 0.12246 0.14768 0.20668 0.3262 0.24471 0.5183 0.0268 0.1552 0.0237 0.3145-0.01 0.4684l-0.034 0.13396-0.0448 0.1322c-0.0538 0.13634-0.11966 0.26706-0.19656 0.39048-0.10692 0.17233-0.22735 0.33486-0.35996 0.48591-0.28856 0.32818-0.606 0.62661-0.94816 0.89127-0.0827 0.0673-0.16767 0.13155-0.25463 0.19262-0.0587 0.04089-0.11919 0.07828-0.18168 0.11206l-8e-3 0.0027c-7e-3 5.2e-5 -0.0116-0.0011-0.0173-0.0027-0.0208-0.0099-0.0406-0.02129-0.0598-0.03415-0.10714-0.06537-0.21022-0.13788-0.30859-0.21713-0.32697-0.24941-0.63333-0.52765-0.91574-0.83174-0.13674-0.14774-0.26317-0.30574-0.37824-0.47278-0.0842-0.12119-0.15824-0.24978-0.22148-0.38435-0.0401-0.08535-0.0743-0.17374-0.10205-0.2644l-0.034-0.13396c-0.0383-0.17597-0.0364-0.35907 7e-3 -0.53407 0.0439-0.16716 0.1227-0.32181 0.23061-0.45264 0.1047-0.13123 0.22745-0.24513 0.36415-0.33795 0.0908-0.06045 0.1902-0.10514 0.29445-0.1322l0.0938-0.01838 0.0906-0.0061 0.10371 0.0061" fill="#a000a0" fill-rule="evenodd"/>
  <g fill="#000000">
   <text id="nameText" x="-696.99207" y="8.3254051" font-family="'Great Vibes'" font-size="6.345px" stroke-width=".15862" style="line-height:0.85" xml:space="preserve"><tspan id="tspan1652" x="-696.99207" y="8.3254051">Lea &amp;</tspan><tspan id="tspan1656" x="-696.99207" y="14.224768">    Martin</tspan></text>
   <text id="monat-jahr" transform="scale(.90542 1.1045)" x="-770.51428" y="18.194853" font-family="sans-serif" font-size="4.7034px" stroke-width=".11758" style="line-height:1.25" xml:space="preserve"><tspan id="tspan1658" x="-770.51428" y="18.194853" font-family="'Architects Daughter'" stroke-width=".11758">Januar 2020</tspan></text>
   <text id="text1664" transform="scale(.91121 1.0974)" x="-765.31439" y="23.696095" font-family="'Architects Daughter'" font-size="3.0925px" stroke-width=".077313" style="line-height:1.25" xml:space="preserve"><tspan id="tspan1662" x="-765.31439" y="23.696095"/><tspan id="tspan1666" x="-765.31439" y="27.716351">7</tspan><tspan id="tspan1668" x="-765.31439" y="31.736605">12</tspan><tspan id="tspan1670" x="-765.31439" y="35.756859">17</tspan><tspan id="tspan1672" x="-765.31439" y="39.777115">22</tspan><tspan id="tspan1674" x="-765.31439" y="43.797371">27</tspan></text>
   <g font-family="'Architects Daughter'" font-size="3.0925px" stroke-width=".077313">
    <text id="text1664-2" transform="scale(.91121 1.0974)" x="-759.2276" y="23.776844" style="line-height:1.25" xml:space="preserve"><tspan id="tspan1662-2" x="-759.2276" y="23.776844"/><tspan id="tspan1666-5" x="-759.2276" y="27.797087">8</tspan><tspan id="tspan1668-8" x="-759.2276" y="31.817329">13</tspan><tspan id="tspan1670-2" x="-759.2276" y="35.83757">18</tspan><tspan id="tspan1672-9" x="-759.2276" y="39.857815">23</tspan><tspan id="tspan1674-9" x="-759.2276" y="43.878056">28</tspan></text>
    <text id="col-2" transform="scale(.91121 1.0974)" x="-753.41266" y="23.825754" style="line-height:1.25" xml:space="preserve"><tspan id="tspan1662-2-2" x="-753.41266" y="23.825754"/><tspan id="tspan1666-5-6" x="-753.41266" y="27.845997">9</tspan><tspan id="tspan1668-8-6" x="-753.41266" y="31.86624">14</tspan><tspan id="tspan1670-2-8" x="-753.41266" y="35.886482">19</tspan><tspan id="tspan1672-9-4" x="-753.41266" y="39.906723">24</tspan><tspan id="tspan1674-9-5" x="-753.41266" y="43.926968">29</tspan></text>
    <text id="col-3" transform="scale(.91121 1.0974)" x="-747.27985" y="23.913818" style="line-height:1.25" xml:space="preserve"><tspan id="tspan1662-2-2-7" x="-747.27985" y="23.913818"/><tspan id="tspan1666-5-6-4" x="-747.27985" y="27.934061">10</tspan><tspan id="tspan1668-8-6-3" x="-747.27985" y="31.954304">15</tspan><tspan id="tspan1670-2-8-4" x="-747.27985" y="35.974545">20</tspan><tspan id="tspan1672-9-4-1" x="-747.27985" y="39.994789">25</tspan><tspan id="tspan1674-9-5-1" x="-747.27985" y="44.01503">30</tspan></text>
    <text id="col-4" transform="scale(.91121 1.0974)" x="-741.11841" y="23.999105" style="line-height:1.25" xml:space="preserve"><tspan id="tspan1662-2-2-7-4" x="-741.11841" y="23.999105"/><tspan id="tspan1666-5-6-4-9" x="-741.11841" y="28.019348">11</tspan><tspan id="tspan1668-8-6-3-3" x="-741.11841" y="32.039589">16</tspan><tspan id="tspan1670-2-8-4-4" x="-741.11841" y="36.059834">21</tspan><tspan id="tspan1672-9-4-1-7" x="-741.11841" y="40.080074">26</tspan><tspan id="tspan1674-9-5-1-9" x="-741.11841" y="44.100319">31</tspan></text>
   </g>
   <text id="text1819" transform="scale(.87139 1.1476)" x="-800.10645" y="22.797779" font-family="'Architects Daughter'" font-size="3.8212px" stroke-width=".095531" style="font-variant-caps:normal;font-variant-east-asian:normal;font-variant-ligatures:normal;font-variant-numeric:normal;line-height:1.25" xml:space="preserve"><tspan id="tspan1817" x="-800.10645" y="22.797779" font-family="'Architects Daughter'" font-size="3.8212px" stroke-width=".095531" style="font-variant-caps:normal;font-variant-east-asian:normal;font-variant-ligatures:normal;font-variant-numeric:normal">1  2  3  4  5  6</tspan></text>
  </g>
 </g>
 <g id="labelPendant" >
  <g fill="none" stroke-width=".05mm">
   <rect id="centerRectangle" transform="matrix(-1 0 0 1 36.1 312)" x="-25" y="-4.2" width="50" height="8.4" stroke="#f36926"/>
   <rect id="rect1665" transform="translate(36.1 312)" x="-28.03" y="-7.0075" width="56.06" height="14.015" stroke="#f36926"/>
   <rect id="outerShape" transform="matrix(-1.0833 0 0 1.0833 37.5 312)" x="-27.5" y="-6.4615" width="55" height="12.923" rx="7.5" stroke="#00f"/>
   <ellipse id="hole" transform="matrix(-1.0833 0 0 1.0833 64.392 312)" rx=".92306" ry=".92308" stroke="#00f"/>
  </g>
  <text id="text" transform="scale(.95491 1.0472)" x="18.619453" y="300.21899" fill="#000000" font-family="sans-serif" font-size="6.3061px" letter-spacing=".69618px" stroke-width=".15765" style="line-height:0" xml:space="preserve"><tspan id="tspan2240" x="18.619453" y="300.21899" dx="0.035083249" dy="0.017541625" rotate="0 0 0 0 0 0 0 0 0 0 0" stroke-width=".15765">0123456789</tspan></text>
  <rect id="rect1420" x="16.325" y="307.87" width="1.5293" height="7.617" fill="none" stop-color="#000000" stroke-width="0"/>
  <rect id="iconPlaceholder" x="10.712" y="309.4" width="5.2092" height="5.2092" fill="none" stop-color="#000000" stroke="#f36926" stroke-linecap="square" stroke-width=".082437"/>
 </g>
</svg>
