<?xml version="1.0" encoding="UTF-8"?>
<svg id="svg931" width="10mm" height="10mm" version="1.1" viewBox="0 0 10 10" xmlns="http://www.w3.org/2000/svg" xmlns:cc="http://creativecommons.org/ns#" xmlns:dc="http://purl.org/dc/elements/1.1/" xmlns:rdf="http://www.w3.org/1999/02/22-rdf-syntax-ns#">
 <metadata id="metadata928">
  <rdf:RDF>
   <cc:Work rdf:about="">
    <dc:format>image/svg+xml</dc:format>
    <dc:type rdf:resource="http://purl.org/dc/dcmitype/StillImage"/>
    <dc:title/>
   </cc:Work>
  </rdf:RDF>
 </metadata>
 <g id="g8114" transform="matrix(.00629 0 0 -.00629 -23.4 38.951)" stroke-width=".23776">
  <path id="path8102" d="m4499.2 5360.1c-111.98-14.266-221.11-78.936-289.83-172.37-58.25-78.936-103.19-160.96-132.43-242.28-19.734-54.446-37.09-126.72-37.09-155.02 0-64.194 41.132-127.91 97.481-150.98 21.636-8.7971 48.502-12.601 73.705-10.461 45.412 3.5663 76.32 11.888 158.11 42.796 87.495 33.048 110.08 39.23 162.39 45.412 71.565 8.5593 119.35-1.4265 223.97-46.125 92.488-39.468 113.41-45.649 152.16-45.649 72.516 0 130.53 38.041 148.12 97.005 6.1816 21.398 6.6572 74.656 0.7133 99.145-14.979 61.817-42.321 123.87-84.166 191.39-93.914 151.45-166.43 235.38-253.69 293.63-38.754 25.916-75.607 41.607-117.93 49.929-21.874 4.5173-78.46 6.4194-101.52 3.5663z"/>
  <path id="path8100" d="m3884.1 5665.2c-60.628-9.2726-106.52-48.74-122.45-105.33-11.888-42.796-14.741-88.208-8.0837-132.91 11.65-78.936 46.125-150.02 98.432-202.57 35.902-35.901 68.95-56.586 114.12-71.565 53.495-17.356 100.81-4.7553 139.33 36.852 32.81 35.426 45.412 71.803 47.789 138.38 0.9511 29.72 0.4755 40.656-3.8042 65.146-13.077 76.796-46.125 141.23-99.858 195.44-36.139 36.377-77.984 63.719-110.32 72.041-14.265 3.8041-44.461 6.1816-55.16 4.5173z"/>
  <path id="path8098" d="m5114.5 5694c-55.16-11.65-111.51-50.167-149.79-101.76-38.041-51.831-61.104-110.08-71.327-180.22-5.7062-39.705-5.944-55.397-1.1888-85.117 7.6082-46.838 26.629-87.019 54.684-115.31 19.496-19.734 38.041-31.146 61.341-37.09 52.782-14.028 121.49 9.2725 175.94 59.677 35.188 32.335 72.754 92.726 89.634 144.32 15.692 47.314 23.3 107.94 19.021 149.55-3.8041 37.09-18.545 78.46-37.803 106.52-6.6572 9.7481-26.867 30.195-38.279 38.992-27.104 20.923-65.146 28.531-102.24 20.447z"/>
  <path id="path8096" d="m4196.8 6147.6c-57.775-19.021-105.56-75.845-123.63-146.93-2.6154-9.7481-5.944-33.762-7.6082-53.258-9.5103-116.98 30.671-235.86 104.85-309.08 29.482-29.244 71.327-54.446 104.85-63.244 48.027-12.601 111.27 15.216 145.98 64.195 33.286 46.838 48.978 101.52 48.978 171.42 0 41.37-4.2795 74.18-14.265 112.46-29.244 111.98-93.201 190.68-180.7 221.59-21.398 7.6082-59.677 9.0347-78.46 2.8531z"/>
  <path id="path8094" d="m4764.8 6155.7c-42.321-12.126-71.803-29.958-103.19-61.817-53.496-54.209-86.544-129.82-97.718-223.73-8.0838-68.95 0.4755-128.86 26.391-183.55 12.601-26.867 21.636-40.419 40.181-59.677 33.524-34.95 70.376-52.782 110.08-52.782 22.111 0 37.803 4.2797 62.53 16.643 86.306 43.272 147.17 140.28 163.1 259.16 6.4195 48.502 2.1398 119.59-9.9857 160.96-19.496 67.285-66.81 121.26-123.87 141.23-17.594 6.1817-52.306 8.0837-67.523 3.5663z"/>
 </g>
</svg>
